<svg id="Object" xmlns="http://www.w3.org/2000/svg" width="1058.645" height="679.74382" viewBox="0 0 1058.645 679.74382">
  <defs>
    <style>
      .cls-1 {
        fill: #aad4c8;
      }

      .cls-2 {
        fill: #616e7d;
      }

      .cls-3 {
        fill: #82bfab;
      }
    </style>
  </defs>
  <g>
    <polygon class="cls-1" points="1038.772 373.807 1038.772 182.708 1009.593 192.599 1009.593 373.807 1038.772 373.807"/>
    <path class="cls-2" d="M894.65522,545.851,567.74993,656.699a28.94233,28.94233,0,0,1-18.66211,0L222.1982,545.851V819.99977h.34608l-.742,3.76707c0,32.61589,150.73484,105.43248,336.43512,105.43248,185.692,0,336.03047-72.81659,336.03047-105.43248l-.76638-3.76707h1.15373Z" transform="translate(-31.355 -249.4555)"/>
    <polygon class="cls-2" points="190.843 242.221 527.081 356.234 863.3 242.221 1009.593 192.599 1038.772 182.708 1054.136 177.499 527.081 0 0 177.499 190.843 242.221"/>
    <path class="cls-1" d="M1021.06611,668.03711V779.60594a34.46695,34.46695,0,0,0,68.93389,0V668.03711a34.37758,34.37758,0,0,0-9.91609-24.17618h-49.0776A34.36591,34.36591,0,0,0,1021.06611,668.03711Z" transform="translate(-31.355 -249.4555)"/>
    <polygon class="cls-3" points="995.25 373.807 995.25 394.405 999.651 394.405 1048.729 394.405 1053.098 394.405 1053.098 373.807 1038.772 373.807 1009.593 373.807 995.25 373.807"/>
  </g>
</svg>
