<svg id="Layer_1" data-name="Layer 1" xmlns="http://www.w3.org/2000/svg" xmlns:xlink="http://www.w3.org/1999/xlink" width="644.10354" height="772.9367" viewBox="0 0 644.10354 772.9367">
  <defs>
    <style>
      .cls-1, .cls-2, .cls-3 {
        fill-rule: evenodd;
      }

      .cls-1 {
        fill: url(#linear-gradient);
      }

      .cls-2 {
        fill: url(#linear-gradient-2);
      }

      .cls-3 {
        fill: url(#linear-gradient-3);
      }
    </style>
    <linearGradient id="linear-gradient" x1="252.3007" y1="333.06713" x2="516.70623" y2="791.03108" gradientTransform="matrix(1, 0, 0, -1, 0, 802)" gradientUnits="userSpaceOnUse">
      <stop offset="0" stop-color="#5f99d2"/>
      <stop offset="1" stop-color="#75cfe7"/>
    </linearGradient>
    <linearGradient id="linear-gradient-2" x1="225.21142" y1="517.85266" x2="520.57565" y2="6.26594" gradientTransform="matrix(1, 0, 0, -1, 0, 802)" gradientUnits="userSpaceOnUse">
      <stop offset="0" stop-color="#6099d2"/>
      <stop offset="0.141" stop-color="#6099d2"/>
      <stop offset="0.428" stop-color="#9d64aa"/>
      <stop offset="1" stop-color="#e175ae"/>
    </linearGradient>
    <linearGradient id="linear-gradient-3" x1="186.15193" y1="800.20821" x2="632.40673" y2="27.2733" xlink:href="#linear-gradient-2"/>
  </defs>
  <path class="cls-1" d="M152.88087,471.49994,118.499,425.792A255.50121,255.50121,0,0,1,66.95972,276.70143c-.04983-2.30849-.07043-4.62044-.05669-6.98218A255.35021,255.35021,0,0,1,143.47168,88.33717,257.94212,257.94212,0,0,1,325.78984,13.53254h255.711A129.55929,129.55929,0,0,1,711,142.86v84.87167A129.5593,129.5593,0,0,1,581.5008,357.05917H324.87609a170.77746,170.77746,0,0,0-137.62536,68.72766ZM325.78984,99.4142c-94.78759,0-172.34731,76.61672-172.89351,170.79285,0,1.55618,0,3.09172.0378,4.64963a171.30224,171.30224,0,0,0,9.739,53.64857,256.94949,256.94949,0,0,1,162.203-57.32774H581.49042A43.52484,43.52484,0,0,0,624.993,227.73169V142.86A43.52479,43.52479,0,0,0,581.5008,99.4142Z" transform="translate(-66.89646 -13.53165)"/>
  <path class="cls-2" d="M581.5008,786.46746h-255.711a257.94056,257.94056,0,0,1-182.31816-74.8029A255.34509,255.34509,0,0,1,66.903,530.28249c-.012-2.20717,0-4.36108.04636-6.539V275.798l85.98642-.90348A171.8183,171.8183,0,0,0,324.87609,442.94083H581.49042A129.55765,129.55765,0,0,1,711,572.26831V657.14A129.55762,129.55762,0,0,1,581.5008,786.46746ZM152.941,463.22607v61.91552c-.03433,1.55959-.04639,3.09172-.03779,4.66337.53933,94.16407,78.09905,170.78085,172.88664,170.78085h255.711A43.52485,43.52485,0,0,0,625.00334,657.14V572.26831a43.52484,43.52484,0,0,0-43.50254-43.44582H324.87609A257.1484,257.1484,0,0,1,152.941,463.22607Z" transform="translate(-66.89646 -13.53165)"/>
  <path id="Shape_5_copy" data-name="Shape 5 copy" class="cls-3" d="M581.5008,357.05917H324.87609A170.51625,170.51625,0,0,0,211.11208,400a170.51979,170.51979,0,0,0,113.764,42.94083H581.49042A129.55765,129.55765,0,0,1,711,572.26831V657.14A129.55762,129.55762,0,0,1,581.5008,786.46746h-255.711a257.94056,257.94056,0,0,1-182.31816-74.8029A255.34509,255.34509,0,0,1,66.903,530.28249c-.012-2.20717,0-4.36108.04636-6.539V275.798h0c-.03779-2.01133-.06183-4.02271-.04982-6.0787A255.35021,255.35021,0,0,1,143.46822,88.33717,257.94221,257.94221,0,0,1,325.78984,13.53254h255.711A129.55929,129.55929,0,0,1,711,142.86v84.87167A129.5593,129.5593,0,0,1,581.5008,357.05917Zm-255.711,343.52664h255.711A43.52485,43.52485,0,0,0,625.00334,657.14V572.26831a43.52484,43.52484,0,0,0-43.50254-43.44582H324.87609A257.1484,257.1484,0,0,1,152.941,463.22607v61.91552c-.03433,1.55959-.04639,3.09172-.03779,4.66337C153.44253,623.969,231.00225,700.58581,325.78984,700.58581ZM625.00155,142.86A43.52477,43.52477,0,0,0,581.5008,99.4142h-255.711c-94.78759,0-172.34731,76.61672-172.89351,170.79285,0,1.55618,0,3.09172.0378,4.64963q.07383,3.45762.28169,6.89286c.01887.30744.05326.61146.07213.91894.13052,1.97013.28,3.93681.4758,5.8932.05325.53933.13225,1.07352.19064,1.61285.18724,1.71764.38129,3.43527.62005,5.134.09273.67331.21471,1.33975.31776,2.00966.237,1.55959.47234,3.11923.75231,4.6685.13738.76436.304,1.52012.45173,2.281.2817,1.44454.55993,2.8908.87769,4.325.18378.82962.39508,1.65064.59086,2.4768.32289,1.35349.639,2.71043.99279,4.05532.23017.876.48954,1.7417.73517,2.61425.359,1.28135.71283,2.56444,1.10271,3.8372.27824.90694.584,1.807.87769,2.7087.39675,1.223.78842,2.44593,1.21264,3.65857.06526.18551.13739.36588.2027.54966a256.944,256.944,0,0,1,162.1876-57.31574H581.49042A43.52484,43.52484,0,0,0,624.993,227.73169V142.86Z" transform="translate(-66.89646 -13.53165)"/>
</svg>
